<?xml version="1.0" encoding="utf-8"?>
<!-- Generator: Adobe Illustrator 19.2.1, SVG Export Plug-In . SVG Version: 6.00 Build 0)  -->
<svg version="1.1" id="Layer_1" xmlns="http://www.w3.org/2000/svg" xmlns:xlink="http://www.w3.org/1999/xlink" x="0px" y="0px"
	 viewBox="0 0 250 70" style="enable-background:new 0 0 250 70;" xml:space="preserve">
<style type="text/css">
	.st0{fill:#020202;}
</style>
<g>
	<path class="st0" d="M29.8,51.4l-2.6,2.5c-1.8-1.9-3.8-2.8-6-2.8c-1.9,0-3.5,0.6-4.8,1.9s-1.9,2.9-1.9,4.8c0,1.3,0.3,2.5,0.9,3.5
		c0.6,1,1.4,1.8,2.4,2.4s2.2,0.9,3.5,0.9c1.1,0,2.1-0.2,3-0.6c0.9-0.4,1.9-1.1,3-2.2l2.5,2.7c-1.5,1.4-2.8,2.4-4.1,3
		c-1.3,0.5-2.8,0.8-4.4,0.8c-3.1,0-5.6-1-7.5-2.9c-2-1.9-2.9-4.4-2.9-7.5c0-2,0.4-3.7,1.3-5.2c0.9-1.5,2.2-2.8,3.8-3.7
		c1.7-0.9,3.4-1.4,5.4-1.4c1.6,0,3.2,0.3,4.7,1S28.7,50.1,29.8,51.4z"/>
	<path class="st0" d="M42.4,47.4c2.8,0,5.2,1,7.2,3c2,2,3,4.5,3,7.4c0,2.9-1,5.3-3,7.3c-2,2-4.4,3-7.2,3c-3,0-5.4-1-7.4-3.1
		c-2-2-2.9-4.5-2.9-7.3c0-1.9,0.5-3.6,1.4-5.2c0.9-1.6,2.2-2.8,3.8-3.8C38.8,47.9,40.5,47.4,42.4,47.4z M42.3,51.1
		c-1.8,0-3.4,0.6-4.6,1.9s-1.9,2.9-1.9,4.8c0,2.2,0.8,3.9,2.3,5.2c1.2,1,2.6,1.5,4.2,1.5c1.8,0,3.3-0.6,4.6-1.9
		c1.3-1.3,1.9-2.9,1.9-4.8c0-1.9-0.6-3.5-1.9-4.8S44.1,51.1,42.3,51.1z"/>
	<path class="st0" d="M58,47.9h3.7l4.6,13.8l4.6-13.8h3.7l3.3,19.7h-3.6l-2.1-12.5l-4.2,12.5h-3.3l-4.2-12.5l-2.2,12.5h-3.7L58,47.9
		z"/>
	<path class="st0" d="M80.8,47.9h4c2.2,0,3.7,0.2,4.7,0.6c1,0.4,1.7,1,2.3,1.9c0.5,0.9,0.8,2,0.8,3.2c0,1.4-0.4,2.5-1.1,3.4
		c-0.7,0.9-1.7,1.5-2.9,1.9c-0.7,0.2-2,0.3-4,0.3v8.4h-3.8V47.9z M84.6,55.6h1.2c0.9,0,1.6-0.1,2-0.2s0.7-0.4,0.9-0.7
		s0.3-0.7,0.3-1.1c0-0.8-0.3-1.3-0.9-1.7c-0.4-0.3-1.2-0.4-2.4-0.4h-1.1V55.6z"/>
	<path class="st0" d="M102.2,47.9h3.8l7.6,19.7h-3.9l-1.5-4.1h-8.1l-1.6,4.1h-3.9L102.2,47.9z M104.2,53.2l-2.6,6.8h5.3L104.2,53.2z
		"/>
	<path class="st0" d="M116.6,47.9h3.6l8.4,13v-13h3.8v19.7h-3.6l-8.4-12.9v12.9h-3.8V47.9z"/>
	<path class="st0" d="M135.5,47.9h4l3.7,7.1l3.7-7.1h4l-5.8,11.2v8.5h-3.8v-8.5L135.5,47.9z"/>
	<path class="st0" d="M161.6,47.9h3.8v16.1h5.5v3.6h-9.2V47.9z"/>
	<path class="st0" d="M183,47.4c2.8,0,5.2,1,7.2,3c2,2,3,4.5,3,7.4c0,2.9-1,5.3-3,7.3c-2,2-4.4,3-7.2,3c-3,0-5.4-1-7.4-3.1
		c-2-2-2.9-4.5-2.9-7.3c0-1.9,0.5-3.6,1.4-5.2c0.9-1.6,2.2-2.8,3.8-3.8C179.4,47.9,181.1,47.4,183,47.4z M183,51.1
		c-1.8,0-3.4,0.6-4.6,1.9s-1.9,2.9-1.9,4.8c0,2.2,0.8,3.9,2.3,5.2c1.2,1,2.6,1.5,4.2,1.5c1.8,0,3.3-0.6,4.6-1.9
		c1.3-1.3,1.9-2.9,1.9-4.8c0-1.9-0.6-3.5-1.9-4.8S184.8,51.1,183,51.1z"/>
	<path class="st0" d="M215,51.1l-2.6,2.6c-1.7-1.8-3.6-2.7-5.9-2.7c-1.9,0-3.6,0.6-4.9,1.9c-1.3,1.3-2,2.9-2,4.7
		c0,1.9,0.7,3.5,2,4.8c1.4,1.3,3,2,5,2c1.3,0,2.4-0.3,3.3-0.8c0.9-0.5,1.6-1.4,2.2-2.6h-5.7v-3.5h9.9l0,0.8c0,1.7-0.4,3.4-1.3,4.9
		c-0.9,1.5-2.1,2.7-3.5,3.5s-3.1,1.2-5,1.2c-2,0-3.9-0.4-5.5-1.3c-1.6-0.9-2.9-2.2-3.8-3.8s-1.4-3.4-1.4-5.3c0-2.6,0.9-4.9,2.6-6.8
		c2-2.3,4.7-3.4,8-3.4c1.7,0,3.3,0.3,4.8,1C212.5,48.9,213.8,49.8,215,51.1z"/>
	<path class="st0" d="M229.1,47.4c2.8,0,5.2,1,7.2,3c2,2,3,4.5,3,7.4c0,2.9-1,5.3-3,7.3c-2,2-4.4,3-7.2,3c-3,0-5.4-1-7.4-3.1
		c-2-2-2.9-4.5-2.9-7.3c0-1.9,0.5-3.6,1.4-5.2c0.9-1.6,2.2-2.8,3.8-3.8C225.6,47.9,227.3,47.4,229.1,47.4z M229.1,51.1
		c-1.8,0-3.4,0.6-4.6,1.9s-1.9,2.9-1.9,4.8c0,2.2,0.8,3.9,2.3,5.2c1.2,1,2.6,1.5,4.2,1.5c1.8,0,3.3-0.6,4.6-1.9
		c1.3-1.3,1.9-2.9,1.9-4.8c0-1.9-0.6-3.5-1.9-4.8S230.9,51.1,229.1,51.1z"/>
</g>
<g>
	<circle class="st0" cx="69.2" cy="22.2" r="20.4"/>
	<circle class="st0" cx="125" cy="22.2" r="20.4"/>
	<circle class="st0" cx="180.8" cy="22.2" r="20.4"/>
</g>
</svg>
